<svg xmlns="http://www.w3.org/2000/svg" width="452.8" height="102" viewBox="-0.08 -78 452.8 102" role="img" aria-label="SpecDeck"><title>SpecDeck</title><g transform="translate(0,0) scale(1)"><path d="M29.9 1.2Q21 1.2 14.7 -2Q8.3 -5.2 3.9 -10.4L12.8 -19Q16.4 -14.8 20.8 -12.6Q25.3 -10.4 30.7 -10.4Q36.8 -10.4 39.9 -13.1Q43 -15.8 43 -20.2Q43 -22.6 42.1 -24.3Q41.3 -26.1 39.2 -27.3Q37.1 -28.5 33.5 -29.1L26.9 -30.1Q19.9 -31.2 15.3 -33.8Q10.6 -36.4 8.3 -40.6Q6 -44.8 6 -50.4Q6 -56.7 9.1 -61.3Q12.2 -65.9 17.8 -68.4Q23.5 -71 31.3 -71Q39.2 -71 45.1 -68.3Q51 -65.7 55.2 -60.7L46.2 -52.2Q43.6 -55.4 39.9 -57.4Q36.2 -59.4 30.6 -59.4Q25 -59.4 22.1 -57.2Q19.2 -55.1 19.2 -51.2Q19.2 -48.5 20.2 -46.8Q21.2 -45.1 23.4 -44.1Q25.6 -43.2 28.9 -42.5L35.4 -41.3Q42.5 -40.1 47.1 -37.5Q51.7 -34.9 53.9 -30.8Q56.1 -26.8 56.1 -21Q56.1 -14.4 53.1 -9.4Q50 -4.4 44.1 -1.6Q38.2 1.2 29.9 1.2ZM66.9 20V-52.2H79.7V-43.6H80.1Q81.5 -48.1 85.4 -50.8Q89.4 -53.4 94.5 -53.4Q101.2 -53.4 105.7 -50.2Q110.2 -47 112.6 -41Q115 -34.9 115 -26.2Q115 -17.5 112.6 -11.3Q110.2 -5.2 105.7 -2Q101.2 1.2 94.5 1.2Q89.4 1.2 85.5 -1.5Q81.6 -4.2 80.1 -8.7H79.7V20ZM90.4 -9.4Q95.4 -9.4 98.5 -12.8Q101.6 -16.1 101.6 -21.6V-30.6Q101.6 -36.2 98.5 -39.5Q95.4 -42.9 90.4 -42.9Q87.4 -42.9 84.9 -41.8Q82.5 -40.8 81.1 -38.9Q79.7 -37 79.7 -34.5V-17.9Q79.7 -15.2 81.1 -13.3Q82.5 -11.4 84.9 -10.4Q87.4 -9.4 90.4 -9.4ZM146.4 1.2Q138.7 1.2 133.2 -2.1Q127.7 -5.5 124.8 -11.7Q121.8 -17.8 121.8 -26.2Q121.8 -34.4 124.7 -40.5Q127.6 -46.7 133 -50Q138.4 -53.4 146 -53.4Q154.2 -53.4 159.4 -49.8Q164.7 -46.2 167.2 -40.2Q169.8 -34.3 169.8 -27.1V-22.9H135.1V-21.6Q135.1 -16 138.3 -12.5Q141.5 -9 147.8 -9Q152.5 -9 155.6 -11.1Q158.7 -13.1 161.1 -16.1L168 -8.4Q164.8 -4.1 159.2 -1.4Q153.7 1.2 146.4 1.2ZM146.2 -43.8Q142.8 -43.8 140.3 -42.2Q137.8 -40.7 136.5 -38Q135.1 -35.2 135.1 -31.6V-30.8H156.5V-31.7Q156.5 -35.4 155.3 -38.1Q154.1 -40.7 151.8 -42.3Q149.5 -43.8 146.2 -43.8ZM200.1 1.2Q188.5 1.2 182.3 -6.2Q176 -13.6 176 -26.2Q176 -38.7 182.3 -46.1Q188.5 -53.4 200.1 -53.4Q208 -53.4 213.2 -49.9Q218.3 -46.4 220.6 -40.2L210.1 -35.5Q209.2 -38.8 206.7 -41Q204.2 -43.1 200.1 -43.1Q194.8 -43.1 192.1 -39.7Q189.4 -36.4 189.4 -30.8V-21.3Q189.4 -15.9 192.1 -12.5Q194.8 -9.1 200.1 -9.1Q204.6 -9.1 207.2 -11.4Q209.7 -13.8 211.1 -17.3L220.9 -12.6Q218.4 -5.7 213 -2.3Q207.7 1.2 200.1 1.2Z" fill="currentColor"/><path d="M230 0V-69.8H255.4Q264.5 -69.8 271.3 -65.9Q278.1 -62 281.8 -54.3Q285.5 -46.5 285.5 -34.9Q285.5 -23.3 281.8 -15.5Q278.1 -7.8 271.3 -3.9Q264.5 0 255.4 0ZM243.2 -11.7H255.4Q260.3 -11.7 263.9 -13.7Q267.5 -15.6 269.5 -19.6Q271.5 -23.5 271.5 -29.4V-40.4Q271.5 -46.4 269.5 -50.3Q267.5 -54.2 263.9 -56.1Q260.3 -58.1 255.4 -58.1H243.2ZM317.6 1.2Q309.9 1.2 304.4 -2.1Q298.9 -5.5 296 -11.7Q293 -17.8 293 -26.2Q293 -34.4 295.9 -40.5Q298.8 -46.7 304.2 -50Q309.6 -53.4 317.2 -53.4Q325.4 -53.4 330.6 -49.8Q335.9 -46.2 338.4 -40.2Q341 -34.3 341 -27.1V-22.9H306.3V-21.6Q306.3 -16 309.5 -12.5Q312.7 -9 319 -9Q323.7 -9 326.8 -11.1Q329.9 -13.1 332.3 -16.1L339.2 -8.4Q336 -4.1 330.4 -1.4Q324.9 1.2 317.6 1.2ZM317.4 -43.8Q314 -43.8 311.5 -42.2Q309 -40.7 307.7 -38Q306.3 -35.2 306.3 -31.6V-30.8H327.7V-31.7Q327.7 -35.4 326.5 -38.1Q325.3 -40.7 323 -42.3Q320.7 -43.8 317.4 -43.8ZM371.3 1.2Q359.7 1.2 353.5 -6.2Q347.2 -13.6 347.2 -26.2Q347.2 -38.7 353.5 -46.1Q359.7 -53.4 371.3 -53.4Q379.2 -53.4 384.4 -49.9Q389.5 -46.4 391.8 -40.2L381.3 -35.5Q380.4 -38.8 377.9 -41Q375.4 -43.1 371.3 -43.1Q366 -43.1 363.3 -39.7Q360.6 -36.4 360.6 -30.8V-21.3Q360.6 -15.9 363.3 -12.5Q366 -9.1 371.3 -9.1Q375.8 -9.1 378.4 -11.4Q380.9 -13.8 382.3 -17.3L392.1 -12.6Q389.6 -5.7 384.2 -2.3Q378.9 1.2 371.3 1.2ZM400.4 0V-74H413.2V-40V-29.4H413.7L420.6 -38.8L432.3 -52.2H446.8L428.8 -32L448.7 0H433.5L420.1 -23.4L413.2 -15.9V0Z" fill="currentColor"/></g></svg>
